<?xml version="1.0" encoding="UTF-8" standalone="no"?>
<!-- Created with Inkscape (http://www.inkscape.org/) -->

<svg
   xmlns:dc="http://purl.org/dc/elements/1.1/"
   xmlns:cc="http://creativecommons.org/ns#"
   xmlns:rdf="http://www.w3.org/1999/02/22-rdf-syntax-ns#"
   xmlns:svg="http://www.w3.org/2000/svg"
   xmlns="http://www.w3.org/2000/svg"
   xmlns:sodipodi="http://sodipodi.sourceforge.net/DTD/sodipodi-0.dtd"
   xmlns:inkscape="http://www.inkscape.org/namespaces/inkscape"
   width="288.24179mm"
   height="287.75571mm"
   viewBox="0 0 259.41762 258.98013"
   version="1.1"
   id="svg8"
   inkscape:version="0.92.4 (5da689c313, 2019-01-14)"
   sodipodi:docname="user.svg">
  <defs
     id="defs2" />
  <sodipodi:namedview
     id="base"
     pagecolor="#ffffff"
     bordercolor="#666666"
     borderopacity="1.0"
     inkscape:pageopacity="0.0"
     inkscape:pageshadow="2"
     inkscape:zoom="0.12374369"
     inkscape:cx="-1313.2916"
     inkscape:cy="1059.4351"
     inkscape:document-units="mm"
     inkscape:current-layer="layer1"
     showgrid="false"
     scale-x="0.9"
     fit-margin-top="0"
     fit-margin-left="0"
     fit-margin-right="0"
     fit-margin-bottom="0"
     inkscape:window-width="1920"
     inkscape:window-height="1017"
     inkscape:window-x="1912"
     inkscape:window-y="-8"
     inkscape:window-maximized="1" />
  <metadata
     id="metadata5">
    <rdf:RDF>
      <cc:Work
         rdf:about="">
        <dc:format>image/svg+xml</dc:format>
        <dc:type
           rdf:resource="http://purl.org/dc/dcmitype/StillImage" />
        <dc:title></dc:title>
      </cc:Work>
    </rdf:RDF>
  </metadata>
  <g
     inkscape:label="Capa 1"
     inkscape:groupmode="layer"
     id="layer1"
     transform="translate(112.30686,-2.4030004)">
    <g
       id="g844"
       transform="translate(374.17734,7.4835468)">
      <path
         style="fill:#fdfdfd;stroke-width:0.86326712"
         d="M -486.05258,124.40952 V -5.0805464 h 129.49007 129.49006 V 124.40952 253.89958 h -129.49006 -129.49007 z"
         id="path860"
         inkscape:connector-curvature="0" />
      <path
         style="fill:#f2f2f2;stroke-width:0.86326712"
         d="M -486.05258,124.40952 V -5.0805464 h 129.49007 129.49006 V 124.40952 253.89958 h -129.49006 -129.49007 z m 223.38892,108.77176 c 0.2066,-15.59883 0.0318,-18.36213 -1.47484,-23.30821 -2.08871,-6.85722 -6.05578,-13.28752 -9.48357,-15.37208 -1.40728,-0.85582 -13.55501,-5.95737 -26.99494,-11.33678 -24.02354,-9.61554 -24.53103,-9.8699 -30.04749,-15.06002 -8.11784,-7.6376 -8.23621,-8.822 -2.5336,-25.35025 2.06262,-5.97821 3.13462,-7.98522 4.26517,-7.98522 2.46582,0 3.32663,-1.81576 6.14671,-12.96563 l 2.68437,-10.61332 -1.936,-1.46032 c -1.89881,-1.43229 -1.91564,-1.60373 -0.87607,-8.92721 1.81081,-12.756622 -1.73743,-25.30343 -9.55394,-33.783334 -6.72908,-7.300191 -13.06304,-9.847597 -30.33179,-12.198898 -8.38367,-1.141514 -10.99874,-1.20624 -14.31199,-0.354239 -5.88581,1.513532 -7.93437,2.686304 -9.29777,5.322829 -0.66648,1.288833 -2.0901,2.591144 -3.1636,2.894024 -5.08642,1.435099 -6.8006,2.613424 -8.82353,6.0653 -1.91327,3.264738 -2.24337,5.065129 -2.71321,14.797925 -0.41768,8.652336 -0.23005,12.369814 0.85611,16.961573 1.8017,7.61672 1.75383,8.99506 -0.3355,9.65819 -2.51603,0.79856 -2.23944,5.13682 0.94243,14.78165 2.06942,6.27277 3.23248,8.49136 5.17754,9.87636 1.37972,0.98245 2.75236,2.82877 3.05033,4.10293 0.29796,1.27418 1.70566,5.01424 3.12824,8.31126 2.26436,5.248 2.53009,6.69724 2.1336,11.63667 -0.37582,4.68182 -0.79565,5.86546 -2.46672,6.95443 -1.10761,0.72179 -3.9861,3.0881 -6.39666,5.25847 -4.72901,4.25783 -14.6473,8.66455 -36.07818,16.02963 -27.25824,9.36774 -29.99574,13.40171 -31.28658,46.10386 -0.33301,8.43633 -0.3674,15.9592 -0.0764,16.71747 0.481,1.25349 9.56741,1.35877 100.04629,1.15925 l 99.51724,-0.21944 z"
         id="path858"
         inkscape:connector-curvature="0" />
      <path
         style="fill:#e7e7e7;stroke-width:0.86326712"
         d="M -486.05258,124.40952 V -5.0805464 h 129.49007 129.49006 V 124.40952 253.89958 H -356.56251 -486.05258 Z M -261.801,234.2383 c 0.18492,-13.8462 -0.0557,-18.62579 -1.15144,-22.87658 -1.72471,-6.69056 -5.07874,-12.97587 -8.5513,-16.02482 -1.61747,-1.42015 -12.69227,-6.35322 -28.33384,-12.62077 l -25.67847,-10.28933 -5.59566,-5.7961 c -6.19604,-6.41797 -6.74538,-8.3871 -4.19252,-15.02827 0.73003,-1.89919 2.19326,-6.14782 3.2516,-9.44141 1.05834,-3.29359 2.48345,-6.16069 3.16691,-6.37134 2.70153,-0.83261 4.16725,-3.1182 5.53869,-8.63685 0.78793,-3.17061 2.06576,-8.04918 2.83961,-10.84125 1.39793,-5.04376 1.39428,-5.08681 -0.56573,-6.67393 -1.93277,-1.56506 -1.95272,-1.75142 -0.98452,-9.2008 0.82263,-6.329431 0.76402,-8.682568 -0.34986,-14.044475 -2.66804,-12.843209 -9.62259,-22.663278 -19.28845,-27.23596 -3.11375,-1.473041 -9.31371,-3.090599 -17.0054,-4.43668 -10.85254,-1.899242 -12.68563,-2.008617 -17.71628,-1.057074 -6.03978,1.142422 -9.93676,3.310848 -10.79185,6.004999 -0.31994,1.008057 -1.81421,2.030757 -3.71994,2.54597 -4.52517,1.223389 -6.41038,2.783974 -8.54435,7.073056 -2.80715,5.642112 -3.52037,20.12904 -1.52171,30.908684 l 1.51265,8.15836 -1.84804,1.22705 c -2.60162,1.72741 -2.38718,5.55557 0.84515,15.08762 1.85902,5.48219 3.46066,8.62787 5.17101,10.15602 1.3692,1.22335 3.2117,4.34692 4.11809,6.98138 0.90215,2.62214 2.26566,5.9769 3.03003,7.45503 0.86311,1.66907 1.38976,4.83332 1.38976,8.35005 0,4.75562 -0.29763,5.90316 -1.85829,7.16483 -1.02206,0.82624 -3.85752,3.27307 -6.301,5.43738 -4.93293,4.36933 -16.88629,9.68544 -37.85269,16.83454 -25.82723,8.80653 -29.02401,13.65106 -29.73643,45.06377 -0.21817,9.61976 -0.17405,18.07061 0.098,18.77967 0.43551,1.13491 12.45676,1.26294 100.44359,1.06978 l 99.94887,-0.21943 z"
         id="path856"
         inkscape:connector-curvature="0" />
      <path
         style="fill:#d6d6d6;stroke-width:0.86326712"
         d="M -486.05258,124.40952 V -5.0805464 h 129.49007 129.49006 V 124.40952 253.89958 h -129.49006 -129.49007 z m 224.93074,125.71482 c 0.28281,-1.1268 0.36233,-9.77026 0.17671,-19.2077 -0.37165,-18.89608 -1.01773,-22.16713 -6.02626,-30.51068 -1.55803,-2.59546 -4.05932,-5.54314 -5.55843,-6.55039 -2.80772,-1.88651 -43.65361,-18.74909 -48.12166,-19.86626 -1.37739,-0.3444 -5.35921,-3.33802 -8.84848,-6.65249 -7.68838,-7.3032 -7.78044,-7.93789 -3.10689,-21.42077 2.54165,-7.33251 3.63071,-9.43831 5.06836,-9.80019 1.75757,-0.44242 5.50666,-7.38565 5.50666,-10.19822 0,-0.65629 0.75801,-4.08046 1.68447,-7.60928 1.57756,-6.00879 1.59376,-6.55301 0.25518,-8.57429 -1.15473,-1.74365 -1.43687,-4.49201 -1.46866,-14.306716 l -0.0394,-12.148464 -3.61153,-7.27505 c -4.02444,-8.10682 -9.09772,-13.793879 -14.96317,-16.773447 -4.92371,-2.501183 -9.05954,-3.610131 -21.04921,-5.643978 -8.10454,-1.374801 -10.44767,-1.471697 -15.19355,-0.628301 -6.07799,1.080128 -9.62468,3.112705 -11.10655,6.365063 -0.51819,1.137314 -1.54869,2.067843 -2.28997,2.067843 -3.09956,0 -8.02052,3.47166 -9.82314,6.930074 -3.29347,6.318633 -4.08537,24.161803 -1.50963,34.014516 1.33465,5.10525 1.33256,5.12425 -0.77851,7.08073 -2.8047,2.5993 -2.68167,4.6728 0.90154,15.19457 2.17118,6.37547 3.71495,9.46862 5.50056,11.02108 1.36524,1.18699 2.77314,3.12934 3.12865,4.31634 0.3555,1.18699 1.57072,4.38016 2.70048,7.09594 2.79479,6.7183 2.9014,15.53731 0.21433,17.73144 -1.01188,0.82624 -3.9078,3.2792 -6.43539,5.45101 -3.69463,3.1746 -7.43811,5.05967 -19.09445,9.61524 -7.97436,3.11658 -17.21814,6.54086 -20.54171,7.60951 -16.36012,5.26042 -23.08587,11.22689 -26.10443,23.15747 -1.27467,5.038 -2.62022,37.71368 -1.65644,40.22526 0.46011,1.19902 11.01852,1.33885 101.09503,1.33885 h 100.58127 z"
         id="path854"
         inkscape:connector-curvature="0" />
      <path
         style="fill:#c7c7c7;stroke-width:0.86326712"
         d="M -486.05258,124.40952 V -5.0805464 h 129.48149 129.4815 l 0.0115,129.4900664 0.0115,129.49006 h -15.90276 c -8.74652,0 -16.43909,-0.2058 -17.0946,-0.45735 -0.94164,-0.36133 -1.05638,-1.67517 -0.54657,-6.25868 1.15208,-10.35791 0.84135,-28.75765 -0.57964,-34.3236 -1.74877,-6.84985 -5.76631,-14.95236 -8.90494,-17.95936 -2.33895,-2.24086 -36.21151,-16.7862 -48.77821,-20.94603 -3.22703,-1.06822 -6.05807,-3.02094 -10.28047,-7.091 -5.02902,-4.84758 -5.82705,-6.03346 -5.82705,-8.65907 0,-4.7244 6.03142,-21.00461 7.96946,-21.51141 2.2425,-0.58643 4.54407,-5.53766 6.11128,-13.14683 0.73343,-3.56098 1.75006,-7.56823 2.25918,-8.905 0.97103,-2.54961 0.35723,-4.59779 -1.95223,-6.51447 -0.9477,-0.78653 -1.06706,-1.80123 -0.49936,-4.24534 1.17089,-5.040917 0.91351,-14.88148 -0.53462,-20.44124 -3.07478,-11.804897 -12.00239,-22.717378 -21.48914,-26.266827 -2.60814,-0.975828 -9.7826,-2.703151 -15.94327,-3.838496 -9.98733,-1.840561 -11.8457,-1.953709 -17.14858,-1.044104 -6.19391,1.062445 -9.71631,2.98784 -11.52851,6.301647 -0.59148,1.081594 -2.44051,2.321006 -4.15365,2.784216 -1.6982,0.459166 -3.94946,1.440652 -5.00282,2.181079 -5.75249,4.043551 -8.25225,23.555704 -4.90996,38.325265 1.197,5.28957 1.17556,5.60024 -0.49391,7.15558 -2.49625,2.32561 -2.23675,7.01921 0.91031,16.46485 1.83554,5.50921 3.43945,8.70374 5.19415,10.34524 2.37117,2.21817 5.95995,10.1423 7.68964,16.97892 1.15256,4.55547 0.0865,11.18492 -1.97616,12.28882 -0.9496,0.50821 -3.37678,2.44514 -5.39372,4.30429 -4.74847,4.37699 -12.9031,7.90397 -43.18862,18.67962 -3.82964,1.3626 -9.12174,3.91036 -11.76023,5.66169 -9.9141,6.58061 -12.42359,13.8558 -13.32458,38.62908 -0.62462,17.17424 -0.31879,20.2945 2.04985,20.91356 0.8306,0.21707 -4.21978,0.43974 -11.22303,0.49481 l -12.73319,0.10014 z"
         id="path852"
         inkscape:connector-curvature="0" />
      <path
         style="fill:#bbbbbb;stroke-width:0.86326712"
         d="M -486.05258,123.97789 V -5.0805464 h 129.49007 129.49006 V 14.601943 c 0,14.157581 -0.29078,19.973275 -1.03592,20.718411 -0.80571,0.805716 -0.80571,1.03592 0,1.03592 0.80021,0 1.03592,24.651072 1.03592,108.340026 v 108.34002 h -16.64133 -16.64132 l 0.73417,-9.28012 c 1.07,-13.52514 0.29174,-27.96293 -1.87518,-34.78704 -2.28831,-7.20641 -7.37888,-14.51897 -11.80905,-16.96359 -1.89072,-1.04332 -14.09796,-6.18654 -27.1272,-11.42936 -23.12006,-9.30327 -23.81098,-9.65196 -28.74146,-14.50513 -5.02367,-4.9449 -5.04979,-4.99685 -4.67029,-9.28905 0.56619,-6.40368 5.42276,-18.86081 7.7526,-19.88548 2.47975,-1.0906 4.04278,-4.47568 5.96506,-12.91866 2.7964,-12.28221 2.84891,-13.23482 0.84686,-15.3659 -1.54806,-1.64784 -1.68862,-2.3998 -1.00212,-5.36113 3.97306,-17.138598 -5.3467,-38.065819 -20.16214,-45.27342 -3.01131,-1.464975 -9.99928,-3.583896 -16.07184,-4.873359 -10.38179,-2.2045 -12.96567,-2.309884 -22.67197,-0.924684 -3.06012,0.436714 -6.22294,2.558322 -8.59323,5.76431 -1.05076,1.421225 -2.43559,2.584046 -3.07741,2.584046 -3.24083,0 -8.07426,3.64853 -10.08185,7.6103 -3.00107,5.922325 -3.87806,20.820936 -1.85772,31.559573 1.4208,7.551934 1.41607,7.684074 -0.33318,9.313744 -2.55906,2.38413 -2.25265,6.62333 1.20657,16.69305 2.15142,6.26274 3.65937,9.22516 5.49284,10.79084 1.39,1.18699 2.81815,3.12934 3.17366,4.31633 0.3555,1.187 1.57072,4.38017 2.70048,7.09595 1.33179,3.20142 2.0541,6.63949 2.0541,9.77708 0,4.16831 -0.31367,5.09955 -2.26231,6.71633 -1.24427,1.03236 -3.9258,3.34845 -5.95895,5.14687 -4.00362,3.54137 -16.89075,9.18103 -35.9084,15.71418 -13.36797,4.59232 -17.10444,6.461 -22.06885,11.03703 -7.90926,7.2905 -9.33736,13.09625 -9.33736,37.95973 v 18.77458 l -11.00665,0.002 -11.00666,0.001 z"
         id="path850"
         inkscape:connector-curvature="0" />
      <path
         style="fill:#b5b5b5;stroke-width:0.86326712"
         d="m -485.82843,124.1937 0.20748,-128.8426129 h 129.05844 129.05843 l 0.23202,19.6393269 c 0.22457,19.008317 0.17767,19.639326 -1.45977,19.639326 -0.93049,0 -1.93188,0.38847 -2.22532,0.863267 -0.47303,0.765368 0.12263,1.020152 1.84584,0.789536 0.303,-0.04056 0.88145,0.445035 1.28542,1.079084 0.40397,0.634048 0.73282,49.420237 0.73077,108.413753 l -0.003,107.26094 -17.03633,-0.0132 c -9.36999,-0.007 -16.55479,-0.31905 -15.96624,-0.69284 0.74878,-0.47556 1.23025,-5.20206 1.6035,-15.74141 0.42702,-12.05784 0.25905,-16.35307 -0.84226,-21.53629 -1.61521,-7.60187 -6.28602,-17.5649 -9.82153,-20.94973 -1.62533,-1.55606 -10.15172,-5.50267 -24.44574,-11.31519 -12.07271,-4.90915 -23.50404,-9.43131 -25.40323,-10.04926 -2.0572,-0.66938 -5.63411,-3.21722 -8.84848,-6.30281 -6.52788,-6.26633 -6.6894,-7.53202 -2.48627,-19.48259 2.14835,-6.10832 3.3751,-8.37779 4.98436,-9.22097 2.73034,-1.43057 3.93523,-4.14475 6.10467,-13.75166 2.74456,-12.15363 2.794,-13.04648 0.85876,-15.50674 -1.42181,-1.80754 -1.59342,-2.76416 -0.9742,-5.43062 2.87712,-12.389495 -1.89565,-28.613565 -11.36203,-38.622865 -4.88293,-5.162981 -10.96116,-8.404558 -19.4182,-10.355904 -3.2885,-0.758777 -7.95558,-1.945715 -10.3713,-2.637639 -5.48811,-1.571938 -8.58793,-1.577307 -16.75784,-0.02902 -5.714,1.082863 -6.8294,1.620114 -9.49593,4.573917 -1.66179,1.840815 -4.38108,3.885907 -6.04287,4.544651 -5.1703,2.049539 -6.85601,3.535201 -8.70024,7.66774 -3.16473,7.091507 -3.90402,24.648604 -1.42949,33.94828 1.23317,4.63449 1.21561,4.99913 -0.30714,6.37721 -2.78399,2.51947 -2.79606,6.20451 -0.0482,14.69761 3.00699,9.29395 4.69171,12.76051 6.98067,14.36376 2.68544,1.88094 6.31633,12.33089 6.72727,19.36147 0.33527,5.73601 0.21773,6.27025 -1.59279,7.2392 -1.07513,0.5754 -3.72695,2.69011 -5.89296,4.69936 -3.08156,2.85857 -6.7548,4.7814 -16.88719,8.83994 -7.12195,2.8527 -16.251,6.25435 -20.28678,7.55922 -10.08111,3.25948 -18.3092,7.6989 -22.30632,12.03526 -6.6239,7.18609 -9.09498,19.39826 -8.61335,42.5676 l 0.27369,13.16611 -10.56669,-10e-4 -10.56669,-0.001 z"
         id="path848"
         inkscape:connector-curvature="0" />
      <path
         style="fill:#b2b2b2;stroke-width:0.86326712"
         d="m -476.55664,252.17305 9.92757,-0.51888 -9.0643,-0.17225 -9.06431,-0.17224 V 123.76202 -3.7856458 h 128.41093 128.41092 l -0.0681,19.4235098 c -0.0375,10.68293 -0.23257,19.032312 -0.4336,18.554183 -0.20102,-0.47813 -2.11271,-0.730366 -4.24818,-0.560525 -3.12094,0.24822 -3.88267,0.62847 -3.88267,1.938209 0,1.244066 0.86766,1.776207 3.66889,2.250151 2.01788,0.34141 3.96023,0.540236 4.31633,0.441836 0.3561,-0.0984 0.64745,47.79716 0.64745,106.434582 v 106.61348 h -14.67554 -14.67554 v -4.80472 c 0,-2.6426 0.31758,-5.45901 0.70574,-6.25868 1.37344,-2.82959 -0.43232,-23.43938 -2.70386,-30.86003 -2.43523,-7.95542 -7.80468,-15.91239 -12.1086,-17.94366 -6.0627,-2.86135 -23.53492,-10.06616 -41.12227,-16.9571 -8.18464,-3.20686 -9.55888,-4.07899 -14.45972,-9.17661 -2.97854,-3.09813 -5.41553,-6.17883 -5.41553,-6.84601 0,-2.09299 3.68376,-12.83846 4.89077,-14.26628 0.63366,-0.74959 1.1521,-1.76354 1.1521,-2.25323 0,-0.4897 1.26253,-2.23392 2.80562,-3.87606 2.80591,-2.98601 4.26532,-6.77803 5.78416,-15.02922 0.44474,-2.41603 1.46443,-6.03183 2.26599,-8.03512 l 1.45737,-3.64235 -2.33731,-2.43963 -2.3373,-2.43962 1.47747,-5.89127 c 1.56506,-6.240512 1.3971,-7.891269 -1.92421,-18.912393 -2.11574,-7.020659 -3.7477,-10.054068 -8.50241,-15.803848 -5.07694,-6.139455 -11.13253,-9.568823 -21.56595,-12.213109 -3.42064,-0.86694 -5.94923,-1.956952 -5.82706,-2.51191 0.1187,-0.53921 -0.36689,-0.980382 -1.07908,-0.980382 -0.7122,0 -1.2949,0.358696 -1.2949,0.797102 0,0.438407 -1.21087,0.193039 -2.69083,-0.545261 -2.35342,-1.174041 -3.84183,-1.207155 -11.86992,-0.264084 -10.293,1.209131 -12.69527,2.148791 -16.22336,6.345833 -1.34842,1.604094 -3.44593,3.154896 -4.66112,3.446227 -4.26489,1.02246 -7.89768,4.31786 -9.60767,8.715388 -2.37698,6.112781 -3.09339,24.747579 -1.2462,32.415337 1.29124,5.35998 1.27695,5.66296 -0.34872,7.3934 -2.44381,2.60132 -2.15496,8.02929 0.91433,17.18176 2.71183,8.08656 4.35219,11.27359 6.91285,13.43081 4.02831,3.39365 8.18072,21.55517 4.9374,21.59489 -0.72853,0.009 -0.65843,0.30388 0.21582,0.90795 1.11907,0.77325 1.06533,1.0352 -0.39572,1.92914 -0.92984,0.56892 -3.37134,2.62366 -5.42556,4.5661 -2.54969,2.41095 -6.53335,4.69384 -12.55328,7.19381 -13.78351,5.72407 -16.01642,6.57113 -25.22043,9.56756 -21.05249,6.85377 -29.0305,15.59729 -30.32018,33.22949 -0.81357,11.12296 -0.74299,34.10636 0.10583,34.46315 0.4748,0.19957 -4.18684,0.31604 -10.3592,0.25882 l -11.22247,-0.10404 z m 224.27954,0.21886 c 4.89193,-0.15415 12.66134,-0.15352 17.26535,0.002 4.60402,0.15491 0.60153,0.28105 -8.89441,0.28028 -9.49594,-7.6e-4 -13.26285,-0.12752 -8.37094,-0.28167 z"
         id="path846"
         inkscape:connector-curvature="0" />
    </g>
  </g>
</svg>
